<?xml version="1.0" encoding="utf-8"?>
<!-- Generator: Adobe Illustrator 26.0.0, SVG Export Plug-In . SVG Version: 6.00 Build 0)  -->
<svg version="1.1" id="Layer_1" xmlns="http://www.w3.org/2000/svg" xmlns:xlink="http://www.w3.org/1999/xlink" x="0px" y="0px"
	 viewBox="0 0 74 24" style="enable-background:new 0 0 74 24;" xml:space="preserve">
<style type="text/css">
	.st0{fill:#1E1C1C;}
</style>
<g>
	<g transform="translate(-1.478158, 30.687052)">
		<g>
			<path d="M12.3-16.9c0,1.6-0.4,2.8-1.3,3.7c-0.9,0.9-2.2,1.3-3.8,1.3c-0.9,0-1.8-0.2-2.6-0.6c-0.8-0.4-1.4-1-1.9-1.8
				C2.2-15.2,2-16.1,2-17.1v-2.6c0-1,0.2-1.9,0.7-2.7c0.5-0.8,1.1-1.4,1.9-1.8C5.3-24.8,6.2-25,7.1-25c1.6,0,2.8,0.4,3.8,1.3
				c0.9,0.9,1.4,2.1,1.4,3.7H9c0-0.6-0.2-1.1-0.5-1.4c-0.3-0.3-0.8-0.5-1.4-0.5c-0.6,0-1,0.2-1.4,0.5c-0.4,0.3-0.5,0.8-0.5,1.5v2.9
				c0,0.6,0.2,1.1,0.6,1.5C6.2-15.2,6.6-15,7.2-15c1.3,0,1.9-0.6,1.9-1.9H12.3z"/>
		</g>
	</g>
</g>
<g>
	<g transform="translate(18.556153, 30.687052)">
		<g>
			<path d="M1.8-24.3c0.7,0.3,1.3,0.8,1.7,1.5c0.4,0.7,0.6,1.4,0.6,2.2c0,0.9-0.3,1.8-0.9,2.5c-0.6,0.7-1.3,1.2-2.2,1.5l3.2,4.4H3.4
				l-3.1-4.3l-0.6,0h-4.5v4.3h-0.7v-12.5h4.8c0.5,0,1,0,1.4,0.1C1.1-24.6,1.5-24.5,1.8-24.3z M0-17.2c0.6,0,1.2-0.2,1.7-0.5
				c0.5-0.3,0.9-0.7,1.3-1.3c0.3-0.5,0.5-1.1,0.5-1.7c0-0.7-0.2-1.3-0.5-1.9c-0.4-0.6-0.9-1-1.5-1.3c-0.5-0.2-1.1-0.3-2-0.3h-4.1
				v6.9H0z"/>
		</g>
	</g>
</g>
<g>
	<g transform="translate(38.590464, 30.687052)">
		<g>
			<path d="M-14.4-24.7h8.8v0.7h-8.2v5.1h7.1v0.7h-7.1v5.5h8.2v0.7h-8.8V-24.7z"/>
		</g>
	</g>
</g>
<g>
	<g transform="translate(58.624775, 30.687052)">
		<g>
			<path d="M-12.3-12.2h-11.8l5.9-12.8L-12.3-12.2z M-23-12.9h9.7l-4.9-10.5L-23-12.9z"/>
		</g>
	</g>
</g>
<g>
	<g transform="translate(72.797902, 30.532499)">
		<g>
			<path class="st0" d="M-19.9-24.7v0.7h-4.7v11.9h-0.6V-24H-30v-0.7H-19.9z"/>
		</g>
	</g>
</g>
<g>
	<g transform="translate(91.71718, 30.532499)">
		<g>
			<path class="st0" d="M-37.4-24.7l4.8,11.6l4.8-11.6h0.7l-5.2,12.5H-33l-5.1-12.5H-37.4z"/>
		</g>
	</g>
</g>
<g>
	<g transform="translate(106.648581, 30.532499)">
		<g>
			<path class="st0" d="M-33.8-12.1h-11.8l5.9-12.8L-33.8-12.1z M-44.5-12.8h9.7l-4.9-10.5L-44.5-12.8z"/>
		</g>
	</g>
</g>
</svg>
